<svg width="39" height="39" viewBox="0 0 39 39" fill="none" xmlns="http://www.w3.org/2000/svg">
<path fill-rule="evenodd" clip-rule="evenodd" d="M2.4375 19.5C2.4375 19.1768 2.5659 18.8668 2.79446 18.6382C3.02302 18.4097 3.33302 18.2813 3.65625 18.2813H32.4017L24.7309 10.6129C24.502 10.384 24.3735 10.0737 24.3735 9.75001C24.3735 9.42637 24.502 9.11599 24.7309 8.88714C24.9597 8.65829 25.2701 8.52972 25.5938 8.52972C25.9174 8.52972 26.2278 8.65829 26.4566 8.88714L36.2066 18.6371C36.3201 18.7503 36.4102 18.8848 36.4716 19.0329C36.5331 19.181 36.5647 19.3397 36.5647 19.5C36.5647 19.6603 36.5331 19.8191 36.4716 19.9671C36.4102 20.1152 36.3201 20.2497 36.2066 20.3629L26.4566 30.1129C26.2278 30.3417 25.9174 30.4703 25.5938 30.4703C25.2701 30.4703 24.9597 30.3417 24.7309 30.1129C24.502 29.884 24.3735 29.5737 24.3735 29.25C24.3735 28.9264 24.502 28.616 24.7309 28.3871L32.4017 20.7188H3.65625C3.33302 20.7188 3.02302 20.5904 2.79446 20.3618C2.5659 20.1332 2.4375 19.8232 2.4375 19.5Z" fill="black"/>
</svg>
