<svg width="101" height="41" viewBox="0 0 101 41" fill="none" xmlns="http://www.w3.org/2000/svg">
<rect x="30" y="9" width="25" height="25" rx="4" fill="#FF9898"/>
<path d="M6.256 24.878H6.205C5.91033 25.3427 5.53633 25.6827 5.083 25.898C4.62967 26.102 4.131 26.204 3.587 26.204C3.213 26.204 2.84467 26.153 2.482 26.051C2.13067 25.949 1.81333 25.796 1.53 25.592C1.258 25.388 1.037 25.133 0.867 24.827C0.697 24.521 0.612 24.164 0.612 23.756C0.612 23.314 0.691333 22.94 0.85 22.634C1.00867 22.3167 1.21833 22.056 1.479 21.852C1.751 21.6367 2.06267 21.4667 2.414 21.342C2.76533 21.2173 3.128 21.1267 3.502 21.07C3.88733 21.002 4.27267 20.9623 4.658 20.951C5.04333 20.9283 5.406 20.917 5.746 20.917H6.256V20.696C6.256 20.186 6.08033 19.8063 5.729 19.557C5.37767 19.2963 4.93 19.166 4.386 19.166C3.95533 19.166 3.553 19.2453 3.179 19.404C2.805 19.5513 2.482 19.7553 2.21 20.016L1.139 18.945C1.59233 18.4803 2.11933 18.146 2.72 17.942C3.332 17.738 3.961 17.636 4.607 17.636C5.185 17.636 5.67233 17.704 6.069 17.84C6.46567 17.9647 6.79433 18.129 7.055 18.333C7.31567 18.537 7.514 18.775 7.65 19.047C7.79733 19.3077 7.89933 19.574 7.956 19.846C8.024 20.118 8.06367 20.3843 8.075 20.645C8.08633 20.8943 8.092 21.1153 8.092 21.308V26H6.256V24.878ZM6.137 22.345H5.712C5.42867 22.345 5.11133 22.3563 4.76 22.379C4.40867 22.4017 4.07433 22.4583 3.757 22.549C3.451 22.6283 3.19033 22.753 2.975 22.923C2.75967 23.0817 2.652 23.3083 2.652 23.603C2.652 23.7957 2.69167 23.96 2.771 24.096C2.86167 24.2207 2.975 24.3283 3.111 24.419C3.247 24.5097 3.4 24.5777 3.57 24.623C3.74 24.657 3.91 24.674 4.08 24.674C4.78267 24.674 5.29833 24.5097 5.627 24.181C5.967 23.841 6.137 23.382 6.137 22.804V22.345ZM18.1069 24.776H18.0729C17.7782 25.2747 17.3815 25.6373 16.8829 25.864C16.3842 26.0907 15.8459 26.204 15.2679 26.204C14.6332 26.204 14.0665 26.0963 13.5679 25.881C13.0805 25.6543 12.6612 25.3483 12.3099 24.963C11.9585 24.5777 11.6922 24.1243 11.5109 23.603C11.3295 23.0817 11.2389 22.5207 11.2389 21.92C11.2389 21.3193 11.3352 20.7583 11.5279 20.237C11.7205 19.7157 11.9869 19.2623 12.3269 18.877C12.6782 18.4917 13.0975 18.1913 13.5849 17.976C14.0722 17.7493 14.6049 17.636 15.1829 17.636C15.5682 17.636 15.9082 17.6757 16.2029 17.755C16.4975 17.8343 16.7582 17.9363 16.9849 18.061C17.2115 18.1857 17.4042 18.3217 17.5629 18.469C17.7215 18.605 17.8519 18.741 17.9539 18.877H18.0049V13.148H20.0449V26H18.1069V24.776ZM13.2789 21.92C13.2789 22.2373 13.3299 22.5433 13.4319 22.838C13.5452 23.1327 13.7039 23.3933 13.9079 23.62C14.1232 23.8467 14.3782 24.028 14.6729 24.164C14.9675 24.3 15.3019 24.368 15.6759 24.368C16.0499 24.368 16.3842 24.3 16.6789 24.164C16.9735 24.028 17.2229 23.8467 17.4269 23.62C17.6422 23.3933 17.8009 23.1327 17.9029 22.838C18.0162 22.5433 18.0729 22.2373 18.0729 21.92C18.0729 21.6027 18.0162 21.2967 17.9029 21.002C17.8009 20.7073 17.6422 20.4467 17.4269 20.22C17.2229 19.9933 16.9735 19.812 16.6789 19.676C16.3842 19.54 16.0499 19.472 15.6759 19.472C15.3019 19.472 14.9675 19.54 14.6729 19.676C14.3782 19.812 14.1232 19.9933 13.9079 20.22C13.7039 20.4467 13.5452 20.7073 13.4319 21.002C13.3299 21.2967 13.2789 21.6027 13.2789 21.92ZM28.0669 20.101C27.6702 19.5457 27.1375 19.268 26.4689 19.268C26.1969 19.268 25.9305 19.336 25.6699 19.472C25.4092 19.608 25.2789 19.829 25.2789 20.135C25.2789 20.3843 25.3865 20.5657 25.6019 20.679C25.8172 20.7923 26.0892 20.8887 26.4179 20.968C26.7465 21.0473 27.0979 21.1323 27.4719 21.223C27.8572 21.3023 28.2142 21.4327 28.5429 21.614C28.8715 21.784 29.1435 22.022 29.3589 22.328C29.5742 22.634 29.6819 23.0533 29.6819 23.586C29.6819 24.0733 29.5742 24.487 29.3589 24.827C29.1549 25.1557 28.8829 25.422 28.5429 25.626C28.2142 25.83 27.8402 25.9773 27.4209 26.068C27.0015 26.1587 26.5822 26.204 26.1629 26.204C25.5282 26.204 24.9445 26.1133 24.4119 25.932C23.8792 25.7507 23.4032 25.422 22.9839 24.946L24.3439 23.671C24.6045 23.9657 24.8822 24.2093 25.1769 24.402C25.4829 24.5833 25.8512 24.674 26.2819 24.674C26.4292 24.674 26.5822 24.657 26.7409 24.623C26.8995 24.589 27.0469 24.5323 27.1829 24.453C27.3189 24.3737 27.4265 24.2773 27.5059 24.164C27.5965 24.0393 27.6419 23.8977 27.6419 23.739C27.6419 23.4557 27.5342 23.246 27.3189 23.11C27.1035 22.974 26.8315 22.8663 26.5029 22.787C26.1742 22.6963 25.8172 22.617 25.4319 22.549C25.0579 22.4697 24.7065 22.3507 24.3779 22.192C24.0492 22.022 23.7772 21.7897 23.5619 21.495C23.3465 21.2003 23.2389 20.7923 23.2389 20.271C23.2389 19.8177 23.3295 19.4267 23.5109 19.098C23.7035 18.758 23.9529 18.4803 24.2589 18.265C24.5649 18.0497 24.9162 17.891 25.3129 17.789C25.7095 17.687 26.1119 17.636 26.5199 17.636C27.0639 17.636 27.6022 17.7323 28.1349 17.925C28.6675 18.1063 29.0982 18.4237 29.4269 18.877L28.0669 20.101ZM41.0266 17.84V25.269C41.0266 26.0057 40.9359 26.6687 40.7546 27.258C40.5732 27.8587 40.2899 28.363 39.9046 28.771C39.5306 29.1903 39.0546 29.5133 38.4766 29.74C37.8986 29.9667 37.2129 30.08 36.4196 30.08C35.6602 30.08 34.9406 29.9837 34.2606 29.791C33.5806 29.5983 32.9516 29.247 32.3736 28.737L33.5976 27.071C34.0056 27.445 34.4306 27.734 34.8726 27.938C35.3146 28.142 35.8246 28.244 36.4026 28.244C36.8899 28.244 37.2979 28.176 37.6266 28.04C37.9666 27.904 38.2329 27.717 38.4256 27.479C38.6296 27.241 38.7712 26.952 38.8506 26.612C38.9412 26.2833 38.9866 25.915 38.9866 25.507V24.912H38.9526C38.6579 25.3087 38.2669 25.609 37.7796 25.813C37.2922 26.0057 36.7936 26.102 36.2836 26.102C35.6716 26.102 35.1162 25.9943 34.6176 25.779C34.1189 25.5523 33.6882 25.252 33.3256 24.878C32.9742 24.504 32.7022 24.062 32.5096 23.552C32.3169 23.042 32.2206 22.498 32.2206 21.92C32.2206 21.3193 32.3112 20.7583 32.4926 20.237C32.6739 19.7157 32.9402 19.2623 33.2916 18.877C33.6429 18.4917 34.0622 18.1913 34.5496 17.976C35.0482 17.7493 35.6149 17.636 36.2496 17.636C36.8276 17.636 37.3659 17.7493 37.8646 17.976C38.3632 18.2027 38.7599 18.5653 39.0546 19.064H39.0886V17.84H41.0266ZM36.6746 19.472C36.3119 19.472 35.9832 19.5343 35.6886 19.659C35.3939 19.7723 35.1389 19.9367 34.9236 20.152C34.7196 20.356 34.5552 20.611 34.4306 20.917C34.3172 21.2117 34.2606 21.5403 34.2606 21.903C34.2606 22.2317 34.3172 22.5377 34.4306 22.821C34.5552 23.1043 34.7252 23.3537 34.9406 23.569C35.1559 23.7843 35.4109 23.9543 35.7056 24.079C36.0002 24.2037 36.3176 24.266 36.6576 24.266C37.0316 24.266 37.3659 24.2037 37.6606 24.079C37.9666 23.9543 38.2216 23.79 38.4256 23.586C38.6409 23.3707 38.8052 23.1157 38.9186 22.821C39.0319 22.5263 39.0886 22.209 39.0886 21.869C39.0886 21.155 38.8732 20.577 38.4426 20.135C38.0119 19.693 37.4226 19.472 36.6746 19.472ZM44.2886 21.92C44.2886 21.274 44.4019 20.6903 44.6286 20.169C44.8666 19.6363 45.1839 19.183 45.5806 18.809C45.9773 18.435 46.4476 18.146 46.9916 17.942C47.5356 17.738 48.1136 17.636 48.7256 17.636C49.3376 17.636 49.9156 17.738 50.4596 17.942C51.0036 18.146 51.4739 18.435 51.8706 18.809C52.2673 19.183 52.5789 19.6363 52.8056 20.169C53.0436 20.6903 53.1626 21.274 53.1626 21.92C53.1626 22.566 53.0436 23.1553 52.8056 23.688C52.5789 24.2093 52.2673 24.657 51.8706 25.031C51.4739 25.405 51.0036 25.694 50.4596 25.898C49.9156 26.102 49.3376 26.204 48.7256 26.204C48.1136 26.204 47.5356 26.102 46.9916 25.898C46.4476 25.694 45.9773 25.405 45.5806 25.031C45.1839 24.657 44.8666 24.2093 44.6286 23.688C44.4019 23.1553 44.2886 22.566 44.2886 21.92ZM46.3286 21.92C46.3286 22.2373 46.3796 22.5433 46.4816 22.838C46.5949 23.1327 46.7536 23.3933 46.9576 23.62C47.1729 23.8467 47.4279 24.028 47.7226 24.164C48.0173 24.3 48.3516 24.368 48.7256 24.368C49.0996 24.368 49.4339 24.3 49.7286 24.164C50.0233 24.028 50.2726 23.8467 50.4766 23.62C50.6919 23.3933 50.8506 23.1327 50.9526 22.838C51.0659 22.5433 51.1226 22.2373 51.1226 21.92C51.1226 21.6027 51.0659 21.2967 50.9526 21.002C50.8506 20.7073 50.6919 20.4467 50.4766 20.22C50.2726 19.9933 50.0233 19.812 49.7286 19.676C49.4339 19.54 49.0996 19.472 48.7256 19.472C48.3516 19.472 48.0173 19.54 47.7226 19.676C47.4279 19.812 47.1729 19.9933 46.9576 20.22C46.7536 20.4467 46.5949 20.7073 46.4816 21.002C46.3796 21.2967 46.3286 21.6027 46.3286 21.92ZM56.4326 24.81C56.4326 24.4473 56.5629 24.1357 56.8236 23.875C57.0956 23.6143 57.4186 23.484 57.7926 23.484C58.1552 23.484 58.4726 23.6087 58.7446 23.858C59.0166 24.1073 59.1526 24.4133 59.1526 24.776C59.1526 25.1387 59.0166 25.4503 58.7446 25.711C58.4839 25.9717 58.1666 26.102 57.7926 26.102C57.6112 26.102 57.4356 26.068 57.2656 26C57.1069 25.932 56.9652 25.8413 56.8406 25.728C56.7159 25.6147 56.6139 25.4787 56.5346 25.32C56.4666 25.1613 56.4326 24.9913 56.4326 24.81ZM62.8228 17.84H64.7608V19.064H64.7948C65.0895 18.5653 65.4862 18.2027 65.9848 17.976C66.4835 17.7493 67.0218 17.636 67.5998 17.636C68.2232 17.636 68.7842 17.7493 69.2828 17.976C69.7815 18.1913 70.2065 18.4917 70.5578 18.877C70.9092 19.2623 71.1755 19.7157 71.3568 20.237C71.5382 20.7583 71.6288 21.3193 71.6288 21.92C71.6288 22.5207 71.5325 23.0817 71.3398 23.603C71.1472 24.1243 70.8752 24.5777 70.5238 24.963C70.1838 25.3483 69.7702 25.6543 69.2828 25.881C68.7955 26.0963 68.2628 26.204 67.6848 26.204C67.2995 26.204 66.9595 26.1643 66.6648 26.085C66.3702 26.0057 66.1095 25.9037 65.8828 25.779C65.6562 25.6543 65.4635 25.524 65.3048 25.388C65.1462 25.2407 65.0158 25.099 64.9138 24.963H64.8628V29.876H62.8228V17.84ZM69.5888 21.92C69.5888 21.6027 69.5322 21.2967 69.4188 21.002C69.3168 20.7073 69.1582 20.4467 68.9428 20.22C68.7388 19.9933 68.4895 19.812 68.1948 19.676C67.9002 19.54 67.5658 19.472 67.1918 19.472C66.8178 19.472 66.4835 19.54 66.1888 19.676C65.8942 19.812 65.6392 19.9933 65.4238 20.22C65.2198 20.4467 65.0612 20.7073 64.9478 21.002C64.8458 21.2967 64.7948 21.6027 64.7948 21.92C64.7948 22.2373 64.8458 22.5433 64.9478 22.838C65.0612 23.1327 65.2198 23.3933 65.4238 23.62C65.6392 23.8467 65.8942 24.028 66.1888 24.164C66.4835 24.3 66.8178 24.368 67.1918 24.368C67.5658 24.368 67.9002 24.3 68.1948 24.164C68.4895 24.028 68.7388 23.8467 68.9428 23.62C69.1582 23.3933 69.3168 23.1327 69.4188 22.838C69.5322 22.5433 69.5888 22.2373 69.5888 21.92ZM74.9248 13.148H76.9648V26H74.9248V13.148Z" fill="black"/>
</svg>
